<svg xmlns="http://www.w3.org/2000/svg" width="24" height="24" viewBox="0 0 24 24" fill="none">
  <path d="M1.684 14.088c-.226.36-.226.81 0 1.17l2.07 3.3c.225.36.63.576 1.08.576h2.7c.45 0 .855-.216 1.08-.576.495-.792 1.26-2.016 2.385-3.816 1.8-2.88 4.05-6.48 6.75-6.48 2.7 0 3.6 2.88 3.6 4.32 0 1.44-.9 4.32-3.6 4.32-1.35 0-2.52-.72-3.42-1.8l-1.8 2.88c1.26 1.44 3.15 2.592 5.22 2.592 4.5 0 7.2-3.6 7.2-7.2s-2.7-7.2-7.2-7.2c-4.05 0-6.75 4.32-8.82 7.68l-4.185 6.696z" fill="#2684FF"/>
  <path d="M22.316 9.912c.226-.36.226-.81 0-1.17l-2.07-3.3c-.225-.36-.63-.576-1.08-.576h-2.7c-.45 0-.855.216-1.08.576-.495.792-1.26 2.016-2.385 3.816-1.8 2.88-4.05 6.48-6.75 6.48-2.7 0-3.6-2.88-3.6-4.32 0-1.44.9-4.32 3.6-4.32 1.35 0 2.52.72 3.42 1.8l1.8-2.88c-1.26-1.44-3.15-2.592-5.22-2.592-4.5 0-7.2 3.6-7.2 7.2s2.7 7.2 7.2 7.2c4.05 0 6.75-4.32 8.82-7.68l4.185-6.696z" fill="#2684FF"/>
</svg> 