<svg xmlns="http://www.w3.org/2000/svg" width="24" height="24" viewBox="0 0 24 24" fill="none">
  <path d="M12 0C5.373 0 0 5.373 0 12s5.373 12 12 12 12-5.373 12-12S18.627 0 12 0zm5.568 13.8c-.513 1.394-1.35 2.427-2.314 3.078-.964.651-2.052.977-3.266.977-1.214 0-2.302-.326-3.266-.977-.964-.651-1.801-1.684-2.314-3.078-.513-1.394-.513-2.94 0-4.334.513-1.394 1.35-2.427 2.314-3.078.964-.651 2.052-.977 3.266-.977 1.214 0 2.302.326 3.266.977.964.651 1.801 1.684 2.314 3.078.513 1.394.513 2.94 0 4.334z" fill="#0056D3"/>
  <path d="M15.75 12c0 2.071-1.679 3.75-3.75 3.75S8.25 14.071 8.25 12 9.929 8.25 12 8.25s3.75 1.679 3.75 3.75z" fill="#fff"/>
</svg> 