<svg width="840" height="299" xmlns="http://www.w3.org/2000/svg"><g fill="#FFFFFE" fill-rule="evenodd"><path d="M815.6 154.116c-.169-7.486-3.472-13.696-12.128-13.696-7.605 0-12.273 4.566-14.005 13.696h26.132Zm-9.385 47.718c-29.316 0-41.006-19.566-41.006-39.501 0-24.833 17.294-39.502 38.984-39.502 19.85 0 35.807 11.864 35.807 37.196 0 3.006-.061 6.155-.576 8.216H789.61c1.348 9.059 7.764 14.274 18.193 14.274 7.452 0 12.876-2.121 18.336-6.632l11.551 14.704c-8.67 7.892-18.205 11.245-31.475 11.245Zm-76.235 0c-12.75 0-23.74-3.515-32.198-10.812l12.274-15.137c4.602 4 11.93 6.487 17.903 6.487 5.679 0 8.519-1.489 8.519-4.469 0-3.042-4.232-4.227-10.973-6.343-8.325-2.612-14.765-4.935-19.276-9.443-3.947-3.936-5.703-8.823-5.703-15.354 0-14.61 11.534-23.932 30.753-23.932 10.698 0 20.71 3.308 27.866 9.66l-11.839 14.416c-3.387-2.782-9.784-4.757-14.583-4.757-5.97 0-8.952 1.395-8.952 4.18 0 2.932 3.578 4.172 12.129 6.488 14.778 4.003 24.4 10.582 24.4 24.94 0 15.344-12.095 24.076-30.32 24.076Zm-63.529-2.306h24.69v-74.39h-24.69v74.39Zm12.417-80.444c-8.136 0-14.005-5.962-14.005-13.12 0-7.281 5.643-13.262 14.005-13.262 8.122 0 13.86 5.703 13.86 13.262 0 6.738-5.605 13.12-13.86 13.12Zm-70.892 6.055h23.967l.145 13.407c2.741-8.18 8.816-14.849 18.914-14.849 2.888 0 5.39.338 7.508 1.01v22.488c-3.265-.81-6.583-1.297-9.241-1.297-12.11 0-16.603 6.439-16.603 19.607v34.023h-24.69v-74.39Zm-80.278 0h24.112l.29 9.37c3.658-6.625 10.862-11.678 20.935-11.678 16.447 0 24.978 10.752 24.978 31.428v45.27h-24.69v-42.53c0-8.745-3.32-13.12-9.962-13.12-7.084 0-10.974 4.85-10.974 14.13v41.52h-24.689v-74.39Zm-56.165 76.695c-16.722 0-24.546-11.152-24.546-30.85v-45.845h24.69v42.672c0 8.65 3.368 12.975 10.107 12.975 6.31 0 10.829-4.135 10.829-14.129V125.14h24.69v74.39h-24.257l-.288-9.083c-3.405 6.455-10.444 11.388-21.225 11.388Zm-70.315 0c-14.447 0-28.993-5.185-37.54-14.128l14.583-16.58c6.293 5.75 14.238 9.372 23.245 9.372 8.223 0 13.284-3.09 13.284-8.362 0-5.056-3.22-7.155-13.997-10.883-17-5.88-32.206-11.075-32.206-30.78 0-18.594 14.437-30.707 37.684-30.707 12.802 0 24.301 4.779 32.054 11.966L424.03 128.31c-4.901-4.688-11.744-7.208-18.192-7.208-7.705 0-12.273 3.023-12.273 7.93 0 7.43 12.403 8.98 24.633 14.353 13.67 6.006 22.004 12.854 22.004 27.886 0 19.068-14.346 30.563-38.984 30.563ZM149.727 30.698c65.607 0 118.983 53.293 118.983 118.802 0 17.803-3.97 34.69-11.028 49.866H41.772A117.904 117.904 0 0 1 30.744 149.5c0-65.509 53.376-118.802 118.983-118.802Zm0-30.698C67.167 0 0 67.065 0 149.5S67.167 299 149.727 299s149.727-67.065 149.727-149.5S232.287 0 149.727 0Z"/></g></svg>