<svg width="137" height="48" viewBox="0 0 137 48" fill="none" xmlns="http://www.w3.org/2000/svg">
<g clip-path="url(#clip0_528_4250)">
<path d="M65.6122 32.3944C63.296 32.3944 60.9654 31.573 59.5938 30.1356L61.9305 27.4662C62.9361 28.4226 64.2677 28.9607 65.6554 28.9714C66.9736 28.9714 67.7847 28.4744 67.7847 27.6285C67.7847 26.8174 67.2693 26.4806 65.5424 25.881C62.8176 24.9365 60.3802 24.1028 60.3802 20.9406C60.3802 17.9549 62.6944 16.0124 66.4192 16.0124C68.3096 15.9914 70.14 16.676 71.5527 17.9324L69.2611 20.6018C68.4701 19.8617 67.4285 19.448 66.3453 19.4436C65.1133 19.4436 64.3781 19.9282 64.3781 20.7167C64.3781 21.9098 66.3658 22.1541 68.3248 23.0206C70.5178 23.9857 71.8525 25.0843 71.8525 27.497C71.8607 30.5566 69.5609 32.3944 65.6122 32.3944ZM76.8833 32.3944C74.2036 32.3944 72.949 30.6038 72.949 27.4416V20.0905H76.9059V26.9406C76.9059 28.3287 77.4459 29.0227 78.526 29.0227C79.5383 29.0227 80.2632 28.3595 80.2632 26.764V20.0905H84.22V32.033H80.3309L80.2858 30.573C79.7396 31.61 78.6122 32.3944 76.8833 32.3944ZM85.8853 20.074H89.7519L89.7971 21.5771C90.3843 20.5135 91.5383 19.7024 93.1543 19.7024C95.7888 19.7024 97.1564 21.4293 97.1564 24.7476V32.0165H93.1995V25.2075C93.1995 23.803 92.667 23.1007 91.602 23.1007C90.4665 23.1007 89.8443 23.879 89.8443 25.3595V32.0268H85.8853V20.074ZM98.7539 20.074H102.588L102.61 22.226C103.05 20.9118 104.025 19.842 105.643 19.842C106.05 19.8339 106.456 19.8886 106.846 20.0042V23.6141C106.362 23.489 105.866 23.4201 105.366 23.4087C103.423 23.4087 102.696 24.4354 102.696 26.5566V32.0186H98.7539V20.074ZM110.117 19.1007C108.813 19.1007 107.873 18.1439 107.873 16.996C107.873 15.8482 108.777 14.8666 110.117 14.8666C111.419 14.8666 112.339 15.7825 112.339 16.996C112.335 17.2818 112.273 17.5639 112.159 17.8258C112.044 18.0877 111.879 18.3242 111.672 18.5216C111.465 18.719 111.222 18.8733 110.955 18.9755C110.688 19.0778 110.403 19.1259 110.117 19.1172V19.1007ZM108.132 20.0905H112.089V32.033H108.132V20.0905ZM118.315 32.4108C116.261 32.4108 114.51 31.8461 113.154 30.6757L115.113 28.2363C115.929 28.8941 116.941 29.2605 117.988 29.2773C118.9 29.2773 119.354 29.0391 119.354 28.5607C119.354 28.0822 118.676 27.881 117.596 27.534C116.261 27.1233 115.228 26.7414 114.505 26.0186C113.873 25.3862 113.592 24.6018 113.592 23.5545C113.592 21.2096 115.44 19.7126 118.52 19.7126C120.234 19.7126 121.838 20.2445 122.986 21.2629L121.089 23.5853C120.544 23.1377 119.52 22.8215 118.75 22.8215C117.793 22.8215 117.312 23.0453 117.312 23.4909C117.312 23.9365 117.885 24.1623 119.255 24.534C121.625 25.1767 123.156 26.2321 123.156 28.5381C123.171 31.0001 121.232 32.3944 118.31 32.3944L118.315 32.4108ZM130.534 32.4108C125.836 32.4108 123.963 29.2691 123.963 26.0699C123.963 22.0823 126.735 19.727 130.214 19.727C133.395 19.727 135.963 21.6326 135.963 25.6983C135.979 26.1404 135.948 26.583 135.871 27.0186H127.869C128.074 28.4724 129.113 29.3102 130.785 29.3102C131.864 29.3391 132.915 28.9584 133.725 28.2445L135.573 30.6059C134.187 31.8646 132.657 32.3944 130.53 32.3944L130.534 32.4108ZM132.039 24.7496C132.013 23.5484 131.483 22.5504 130.095 22.5504C128.868 22.5422 128.118 23.2725 127.844 24.7414L132.039 24.7496Z" fill="white"/>
<path d="M25.2998 0C20.5531 0 15.9129 1.40757 11.9661 4.04473C8.01935 6.68188 4.94321 10.4302 3.1267 14.8156C1.3102 19.201 0.834925 24.0266 1.76097 28.6822C2.68702 33.3377 4.97279 37.6141 8.32925 40.9705C11.6857 44.327 15.9621 46.6128 20.6176 47.5388C25.2732 48.4649 30.0988 47.9896 34.4842 46.1731C38.8696 44.3566 42.6179 41.2804 45.2551 37.3337C47.8922 33.3869 49.2998 28.7467 49.2998 24C49.2933 17.6368 46.7626 11.5361 42.2632 7.03664C37.7637 2.53718 31.663 0.00652301 25.2998 0ZM25.2998 4.92813C28.5021 4.92646 31.6531 5.73157 34.4621 7.26912C37.2711 8.80667 39.6474 11.0271 41.3718 13.7255C43.0961 16.4238 44.1129 19.5131 44.3282 22.7081C44.5435 25.9031 43.9504 29.1008 42.6037 32.0061H7.99386C6.64764 29.1006 6.05501 25.9028 6.27067 22.7079C6.48634 19.5129 7.50334 16.4238 9.22782 13.7255C10.9523 11.0273 13.3287 8.80695 16.1376 7.2694C18.9466 5.73185 22.0976 4.92666 25.2998 4.92813Z" fill="white"/>
</g>
<defs>
<clipPath id="clip0_528_4250">
<rect width="136" height="48" fill="white" transform="translate(0.5)"/>
</clipPath>
</defs>
</svg>
