<svg width="960" height="540" xmlns="http://www.w3.org/2000/svg"><g fill="#FFFFFE" fill-rule="evenodd"><path d="M480 37.273c77.384 0 140.34 62.975 140.34 140.381a139.53 139.53 0 0 1-13.007 58.923H352.667a139.552 139.552 0 0 1-13.008-58.923c0-77.406 62.957-140.38 140.341-140.38ZM480 1c-97.38 0-176.604 79.247-176.604 176.654 0 97.408 79.224 176.655 176.604 176.655 97.38 0 176.604-79.247 176.604-176.655C656.604 80.247 577.38 1 480 1ZM751.059 480.381c-.213-9.508-4.403-17.397-15.379-17.397-9.644 0-15.563 5.8-17.76 17.397h33.139ZM739.159 541c-37.175 0-51.997-24.855-51.997-50.18 0-31.547 21.93-50.18 49.434-50.18 25.17 0 45.404 15.07 45.404 47.25 0 3.819-.079 7.82-.733 10.439h-63.164c1.709 11.508 9.845 18.13 23.07 18.13 9.449 0 16.325-2.693 23.252-8.424l14.645 18.68C768.075 536.742 755.984 541 739.158 541Zm-96.67 0c-16.166 0-30.105-4.465-40.828-13.736l15.561-19.229c5.839 5.083 15.131 8.242 22.704 8.242 7.2 0 10.802-1.891 10.802-5.677 0-3.865-5.366-5.372-13.915-8.059-10.554-3.317-18.722-6.268-24.442-11.996-5.005-5-7.232-11.207-7.232-19.503 0-18.56 14.626-30.401 38.998-30.401 13.564 0 26.259 4.201 35.335 12.27l-15.013 18.314c-4.295-3.533-12.408-6.044-18.492-6.044-7.569 0-11.35 1.771-11.35 5.311 0 3.724 4.535 5.3 15.378 8.242 18.739 5.084 30.941 13.442 30.941 31.682 0 19.492-15.337 30.584-38.447 30.584Zm-80.559-2.93h31.309V443.57H561.93v94.498Zm15.746-102.192c-10.315 0-17.758-7.573-17.758-16.664 0-9.25 7.156-16.85 17.758-16.85 10.299 0 17.577 7.246 17.577 16.85 0 8.559-7.11 16.664-17.577 16.664Zm-89.895 7.693h30.392l.184 17.032c3.475-10.392 11.18-18.864 23.984-18.864 3.66 0 6.834.43 9.52 1.282v28.57c-4.14-1.03-8.346-1.649-11.717-1.649-15.358 0-21.055 8.18-21.055 24.908v43.22H487.78V443.57Zm-101.796 0h30.576l.366 11.904c4.64-8.417 13.775-14.834 26.547-14.834 20.856 0 31.674 13.657 31.674 39.923v57.505h-31.307v-54.024c0-11.109-4.21-16.666-12.633-16.666-8.984 0-13.914 6.16-13.914 17.947v52.743h-31.309v-94.498ZM314.766 541c-21.203 0-31.126-14.166-31.126-39.192v-58.237h31.309v54.21c0 10.987 4.27 16.481 12.816 16.481 8.002 0 13.73-5.252 13.73-17.948v-52.743h31.308v94.498h-30.758l-.366-11.536c-4.317 8.2-13.243 14.467-26.913 14.467Zm-89.163 0c-18.32 0-36.766-6.587-47.603-17.948l18.491-21.061c7.981 7.305 18.056 11.905 29.477 11.905 10.428 0 16.845-3.926 16.845-10.622 0-6.423-4.083-9.09-17.75-13.826-21.556-7.47-40.838-14.068-40.838-39.101 0-23.622 18.307-39.01 47.786-39.01 16.232 0 30.814 6.072 40.645 15.202l-18.126 21.062c-6.214-5.957-14.893-9.158-23.07-9.158-9.77 0-15.56 3.84-15.56 10.072 0 9.44 15.725 11.408 31.234 18.235 17.335 7.63 27.901 16.329 27.901 35.425 0 24.223-18.19 38.825-49.432 38.825Z"/></g></svg>